<?xml version="1.0" encoding="utf-8"?>
<!-- Generator: Adobe Illustrator 23.0.2, SVG Export Plug-In . SVG Version: 6.00 Build 0)  -->
<svg version="1.1" xmlns="http://www.w3.org/2000/svg" xmlns:xlink="http://www.w3.org/1999/xlink" x="0px" y="0px"
	 viewBox="0 0 500 500" style="enable-background:new 0 0 500 500;" xml:space="preserve">
<style type="text/css">
	.st0{fill:#080C28;}
	.st1{fill:none;stroke:#0EE2B7;stroke-miterlimit:10;}
	.st2{fill:#D1F500;}
	.st3{fill:#72862D;}
	.st4{fill:#0EE2B7;}
	.st5{fill:#335B65;}
	.st6{fill:none;stroke:#0EE2B7;stroke-width:0.1;stroke-miterlimit:10;}
	.st7{fill:none;stroke:#0EE2B7;stroke-width:0.57;stroke-miterlimit:10;}
	.st8{fill:none;stroke:#0EE2B7;stroke-width:0.3;stroke-miterlimit:10;}
	.st9{fill:none;stroke:#0EE2B7;stroke-width:1.71;stroke-miterlimit:10;}
	.st10{fill:#080C28;stroke:#0EE2B7;stroke-width:3;stroke-miterlimit:10;}
	.st11{fill:none;stroke:#080C28;stroke-width:6;stroke-miterlimit:10;}
	.st12{fill:#72862D;stroke:#D1F500;stroke-miterlimit:10;}
	.st13{fill:#335B65;stroke:#0EE2B7;stroke-miterlimit:10;}
</style>
<g id="Layer_1">
	<g>
		<rect class="st1" width="500" height="500"/>
		<rect class="st8" width="50" height="50"/>
		<rect x="50" class="st8" width="50" height="50"/>
		<rect x="100" class="st8" width="50" height="50"/>
		<rect x="150" class="st8" width="50" height="50"/>
		<rect x="200" class="st8" width="50" height="50"/>
		<rect x="250" class="st8" width="50" height="50"/>
		<rect x="300" class="st8" width="50" height="50"/>
		<rect x="350" class="st8" width="50" height="50"/>
		<rect x="400" class="st8" width="50" height="50"/>
		<rect x="450" class="st8" width="50" height="50"/>
		<rect y="50" class="st8" width="50" height="50"/>
		<rect x="50" y="50" class="st8" width="50" height="50"/>
		<rect x="100" y="50" class="st8" width="50" height="50"/>
		<rect x="150" y="50" class="st8" width="50" height="50"/>
		<rect x="200" y="50" class="st8" width="50" height="50"/>
		<rect x="250" y="50" class="st8" width="50" height="50"/>
		<rect x="300" y="50" class="st8" width="50" height="50"/>
		<rect x="350" y="50" class="st8" width="50" height="50"/>
		<rect x="400" y="50" class="st8" width="50" height="50"/>
		<rect x="450" y="50" class="st8" width="50" height="50"/>
		<rect y="100" class="st8" width="50" height="50"/>
		<rect x="50" y="100" class="st8" width="50" height="50"/>
		<rect x="100" y="100" class="st8" width="50" height="50"/>
		<rect x="150" y="100" class="st8" width="50" height="50"/>
		<rect x="200" y="100" class="st8" width="50" height="50"/>
		<rect x="250" y="100" class="st8" width="50" height="50"/>
		<rect x="300" y="100" class="st8" width="50" height="50"/>
		<rect x="350" y="100" class="st8" width="50" height="50"/>
		<rect x="400" y="100" class="st8" width="50" height="50"/>
		<rect x="450" y="100" class="st8" width="50" height="50"/>
		<rect y="150" class="st8" width="50" height="50"/>
		<rect x="50" y="150" class="st8" width="50" height="50"/>
		<rect x="100" y="150" class="st8" width="50" height="50"/>
		<rect x="150" y="150" class="st8" width="50" height="50"/>
		<rect x="200" y="150" class="st8" width="50" height="50"/>
		<rect x="250" y="150" class="st8" width="50" height="50"/>
		<rect x="300" y="150" class="st8" width="50" height="50"/>
		<rect x="350" y="150" class="st8" width="50" height="50"/>
		<rect x="400" y="150" class="st8" width="50" height="50"/>
		<rect x="450" y="150" class="st8" width="50" height="50"/>
		<rect y="200" class="st8" width="50" height="50"/>
		<rect x="50" y="200" class="st8" width="50" height="50"/>
		<rect x="100" y="200" class="st8" width="50" height="50"/>
		<rect x="150" y="200" class="st8" width="50" height="50"/>
		<rect x="200" y="200" class="st8" width="50" height="50"/>
		<rect x="250" y="200" class="st8" width="50" height="50"/>
		<rect x="300" y="200" class="st8" width="50" height="50"/>
		<rect x="350" y="200" class="st8" width="50" height="50"/>
		<rect x="400" y="200" class="st8" width="50" height="50"/>
		<rect x="450" y="200" class="st8" width="50" height="50"/>
		<rect y="250" class="st8" width="50" height="50"/>
		<rect x="50" y="250" class="st8" width="50" height="50"/>
		<rect x="100" y="250" class="st8" width="50" height="50"/>
		<rect x="150" y="250" class="st8" width="50" height="50"/>
		<rect x="200" y="250" class="st8" width="50" height="50"/>
		<rect x="250" y="250" class="st8" width="50" height="50"/>
		<rect x="300" y="250" class="st8" width="50" height="50"/>
		<rect x="350" y="250" class="st8" width="50" height="50"/>
		<rect x="400" y="250" class="st8" width="50" height="50"/>
		<rect x="450" y="250" class="st8" width="50" height="50"/>
		<rect y="300" class="st8" width="50" height="50"/>
		<rect x="50" y="300" class="st8" width="50" height="50"/>
		<rect x="100" y="300" class="st8" width="50" height="50"/>
		<rect x="150" y="300" class="st8" width="50" height="50"/>
		<rect x="200" y="300" class="st8" width="50" height="50"/>
		<rect x="250" y="300" class="st8" width="50" height="50"/>
		<rect x="300" y="300" class="st8" width="50" height="50"/>
		<rect x="350" y="300" class="st8" width="50" height="50"/>
		<rect x="400" y="300" class="st8" width="50" height="50"/>
		<rect x="450" y="300" class="st8" width="50" height="50"/>
		<rect y="350" class="st8" width="50" height="50"/>
		<rect x="50" y="350" class="st8" width="50" height="50"/>
		<rect x="100" y="350" class="st8" width="50" height="50"/>
		<rect x="150" y="350" class="st8" width="50" height="50"/>
		<rect x="200" y="350" class="st8" width="50" height="50"/>
		<rect x="250" y="350" class="st8" width="50" height="50"/>
		<rect x="300" y="350" class="st8" width="50" height="50"/>
		<rect x="350" y="350" class="st8" width="50" height="50"/>
		<rect x="400" y="350" class="st8" width="50" height="50"/>
		<rect x="450" y="350" class="st8" width="50" height="50"/>
		<rect y="400" class="st8" width="50" height="50"/>
		<rect x="50" y="400" class="st8" width="50" height="50"/>
		<rect x="100" y="400" class="st8" width="50" height="50"/>
		<rect x="150" y="400" class="st8" width="50" height="50"/>
		<rect x="200" y="400" class="st8" width="50" height="50"/>
		<rect x="250" y="400" class="st8" width="50" height="50"/>
		<rect x="300" y="400" class="st8" width="50" height="50"/>
		<rect x="350" y="400" class="st8" width="50" height="50"/>
		<rect x="400" y="400" class="st8" width="50" height="50"/>
		<rect x="450" y="400" class="st8" width="50" height="50"/>
		<rect y="450" class="st8" width="50" height="50"/>
		<rect x="50" y="450" class="st8" width="50" height="50"/>
		<rect x="100" y="450" class="st8" width="50" height="50"/>
		<rect x="150" y="450" class="st8" width="50" height="50"/>
		<rect x="200" y="450" class="st8" width="50" height="50"/>
		<rect x="250" y="450" class="st8" width="50" height="50"/>
		<rect x="300" y="450" class="st8" width="50" height="50"/>
		<rect x="350" y="450" class="st8" width="50" height="50"/>
		<rect x="400" y="450" class="st8" width="50" height="50"/>
		<rect x="450" y="450" class="st8" width="50" height="50"/>
		<g>
			<g>
				<line class="st9" x1="41.43" y1="50" x2="58.57" y2="50"/>
				<line class="st9" x1="50" y1="58.57" x2="50" y2="41.43"/>
			</g>
			<g>
				<line class="st9" x1="91.43" y1="50" x2="108.57" y2="50"/>
				<line class="st9" x1="100" y1="58.57" x2="100" y2="41.43"/>
			</g>
			<g>
				<line class="st9" x1="141.43" y1="50" x2="158.57" y2="50"/>
				<line class="st9" x1="150" y1="58.57" x2="150" y2="41.43"/>
			</g>
			<g>
				<line class="st9" x1="191.43" y1="50" x2="208.57" y2="50"/>
				<line class="st9" x1="200" y1="58.57" x2="200" y2="41.43"/>
			</g>
			<g>
				<line class="st9" x1="241.43" y1="50" x2="258.57" y2="50"/>
				<line class="st9" x1="250" y1="58.57" x2="250" y2="41.43"/>
			</g>
			<g>
				<line class="st9" x1="291.43" y1="50" x2="308.57" y2="50"/>
				<line class="st9" x1="300" y1="58.57" x2="300" y2="41.43"/>
			</g>
			<g>
				<line class="st9" x1="341.43" y1="50" x2="358.57" y2="50"/>
				<line class="st9" x1="350" y1="58.57" x2="350" y2="41.43"/>
			</g>
			<g>
				<line class="st9" x1="391.43" y1="50" x2="408.57" y2="50"/>
				<line class="st9" x1="400" y1="58.57" x2="400" y2="41.43"/>
			</g>
			<g>
				<line class="st9" x1="441.43" y1="50" x2="458.57" y2="50"/>
				<line class="st9" x1="450" y1="58.57" x2="450" y2="41.43"/>
			</g>
		</g>
		<g>
			<g>
				<line class="st9" x1="41.43" y1="100" x2="58.57" y2="100"/>
				<line class="st9" x1="50" y1="108.57" x2="50" y2="91.43"/>
			</g>
			<g>
				<line class="st9" x1="91.43" y1="100" x2="108.57" y2="100"/>
				<line class="st9" x1="100" y1="108.57" x2="100" y2="91.43"/>
			</g>
			<g>
				<line class="st9" x1="141.43" y1="100" x2="158.57" y2="100"/>
				<line class="st9" x1="150" y1="108.57" x2="150" y2="91.43"/>
			</g>
			<g>
				<line class="st9" x1="191.43" y1="100" x2="208.57" y2="100"/>
				<line class="st9" x1="200" y1="108.57" x2="200" y2="91.43"/>
			</g>
			<g>
				<line class="st9" x1="241.43" y1="100" x2="258.57" y2="100"/>
				<line class="st9" x1="250" y1="108.57" x2="250" y2="91.43"/>
			</g>
			<g>
				<line class="st9" x1="291.43" y1="100" x2="308.57" y2="100"/>
				<line class="st9" x1="300" y1="108.57" x2="300" y2="91.43"/>
			</g>
			<g>
				<line class="st9" x1="341.43" y1="100" x2="358.57" y2="100"/>
				<line class="st9" x1="350" y1="108.57" x2="350" y2="91.43"/>
			</g>
			<g>
				<line class="st9" x1="391.43" y1="100" x2="408.57" y2="100"/>
				<line class="st9" x1="400" y1="108.57" x2="400" y2="91.43"/>
			</g>
			<g>
				<line class="st9" x1="441.43" y1="100" x2="458.57" y2="100"/>
				<line class="st9" x1="450" y1="108.57" x2="450" y2="91.43"/>
			</g>
		</g>
		<g>
			<g>
				<line class="st9" x1="41.43" y1="150" x2="58.57" y2="150"/>
				<line class="st9" x1="50" y1="158.57" x2="50" y2="141.43"/>
			</g>
			<g>
				<line class="st9" x1="91.43" y1="150" x2="108.57" y2="150"/>
				<line class="st9" x1="100" y1="158.57" x2="100" y2="141.43"/>
			</g>
			<g>
				<line class="st9" x1="141.43" y1="150" x2="158.57" y2="150"/>
				<line class="st9" x1="150" y1="158.57" x2="150" y2="141.43"/>
			</g>
			<g>
				<line class="st9" x1="191.43" y1="150" x2="208.57" y2="150"/>
				<line class="st9" x1="200" y1="158.57" x2="200" y2="141.43"/>
			</g>
			<g>
				<line class="st9" x1="241.43" y1="150" x2="258.57" y2="150"/>
				<line class="st9" x1="250" y1="158.57" x2="250" y2="141.43"/>
			</g>
			<g>
				<line class="st9" x1="291.43" y1="150" x2="308.57" y2="150"/>
				<line class="st9" x1="300" y1="158.57" x2="300" y2="141.43"/>
			</g>
			<g>
				<line class="st9" x1="341.43" y1="150" x2="358.57" y2="150"/>
				<line class="st9" x1="350" y1="158.57" x2="350" y2="141.43"/>
			</g>
			<g>
				<line class="st9" x1="391.43" y1="150" x2="408.57" y2="150"/>
				<line class="st9" x1="400" y1="158.57" x2="400" y2="141.43"/>
			</g>
			<g>
				<line class="st9" x1="441.43" y1="150" x2="458.57" y2="150"/>
				<line class="st9" x1="450" y1="158.57" x2="450" y2="141.43"/>
			</g>
		</g>
		<g>
			<g>
				<line class="st9" x1="41.43" y1="200" x2="58.57" y2="200"/>
				<line class="st9" x1="50" y1="208.57" x2="50" y2="191.43"/>
			</g>
			<g>
				<line class="st9" x1="91.43" y1="200" x2="108.57" y2="200"/>
				<line class="st9" x1="100" y1="208.57" x2="100" y2="191.43"/>
			</g>
			<g>
				<line class="st9" x1="141.43" y1="200" x2="158.57" y2="200"/>
				<line class="st9" x1="150" y1="208.57" x2="150" y2="191.43"/>
			</g>
			<g>
				<line class="st9" x1="191.43" y1="200" x2="208.57" y2="200"/>
				<line class="st9" x1="200" y1="208.57" x2="200" y2="191.43"/>
			</g>
			<g>
				<line class="st9" x1="241.43" y1="200" x2="258.57" y2="200"/>
				<line class="st9" x1="250" y1="208.57" x2="250" y2="191.43"/>
			</g>
			<g>
				<line class="st9" x1="291.43" y1="200" x2="308.57" y2="200"/>
				<line class="st9" x1="300" y1="208.57" x2="300" y2="191.43"/>
			</g>
			<g>
				<line class="st9" x1="341.43" y1="200" x2="358.57" y2="200"/>
				<line class="st9" x1="350" y1="208.57" x2="350" y2="191.43"/>
			</g>
			<g>
				<line class="st9" x1="391.43" y1="200" x2="408.57" y2="200"/>
				<line class="st9" x1="400" y1="208.57" x2="400" y2="191.43"/>
			</g>
			<g>
				<line class="st9" x1="441.43" y1="200" x2="458.57" y2="200"/>
				<line class="st9" x1="450" y1="208.57" x2="450" y2="191.43"/>
			</g>
		</g>
		<g>
			<g>
				<line class="st9" x1="41.43" y1="250" x2="58.57" y2="250"/>
				<line class="st9" x1="50" y1="258.57" x2="50" y2="241.43"/>
			</g>
			<g>
				<line class="st9" x1="91.43" y1="250" x2="108.57" y2="250"/>
				<line class="st9" x1="100" y1="258.57" x2="100" y2="241.43"/>
			</g>
			<g>
				<line class="st9" x1="141.43" y1="250" x2="158.57" y2="250"/>
				<line class="st9" x1="150" y1="258.57" x2="150" y2="241.43"/>
			</g>
			<g>
				<line class="st9" x1="191.43" y1="250" x2="208.57" y2="250"/>
				<line class="st9" x1="200" y1="258.57" x2="200" y2="241.43"/>
			</g>
			<g>
				<line class="st9" x1="241.43" y1="250" x2="258.57" y2="250"/>
				<line class="st9" x1="250" y1="258.57" x2="250" y2="241.43"/>
			</g>
			<g>
				<line class="st9" x1="291.43" y1="250" x2="308.57" y2="250"/>
				<line class="st9" x1="300" y1="258.57" x2="300" y2="241.43"/>
			</g>
			<g>
				<line class="st9" x1="341.43" y1="250" x2="358.57" y2="250"/>
				<line class="st9" x1="350" y1="258.57" x2="350" y2="241.43"/>
			</g>
			<g>
				<line class="st9" x1="391.43" y1="250" x2="408.57" y2="250"/>
				<line class="st9" x1="400" y1="258.57" x2="400" y2="241.43"/>
			</g>
			<g>
				<line class="st9" x1="441.43" y1="250" x2="458.57" y2="250"/>
				<line class="st9" x1="450" y1="258.57" x2="450" y2="241.43"/>
			</g>
		</g>
		<g>
			<g>
				<line class="st9" x1="41.43" y1="300" x2="58.57" y2="300"/>
				<line class="st9" x1="50" y1="308.57" x2="50" y2="291.43"/>
			</g>
			<g>
				<line class="st9" x1="91.43" y1="300" x2="108.57" y2="300"/>
				<line class="st9" x1="100" y1="308.57" x2="100" y2="291.43"/>
			</g>
			<g>
				<line class="st9" x1="141.43" y1="300" x2="158.57" y2="300"/>
				<line class="st9" x1="150" y1="308.57" x2="150" y2="291.43"/>
			</g>
			<g>
				<line class="st9" x1="191.43" y1="300" x2="208.57" y2="300"/>
				<line class="st9" x1="200" y1="308.57" x2="200" y2="291.43"/>
			</g>
			<g>
				<line class="st9" x1="241.43" y1="300" x2="258.57" y2="300"/>
				<line class="st9" x1="250" y1="308.57" x2="250" y2="291.43"/>
			</g>
			<g>
				<line class="st9" x1="291.43" y1="300" x2="308.57" y2="300"/>
				<line class="st9" x1="300" y1="308.57" x2="300" y2="291.43"/>
			</g>
			<g>
				<line class="st9" x1="341.43" y1="300" x2="358.57" y2="300"/>
				<line class="st9" x1="350" y1="308.57" x2="350" y2="291.43"/>
			</g>
			<g>
				<line class="st9" x1="391.43" y1="300" x2="408.57" y2="300"/>
				<line class="st9" x1="400" y1="308.57" x2="400" y2="291.43"/>
			</g>
			<g>
				<line class="st9" x1="441.43" y1="300" x2="458.57" y2="300"/>
				<line class="st9" x1="450" y1="308.57" x2="450" y2="291.43"/>
			</g>
		</g>
		<g>
			<g>
				<line class="st9" x1="41.43" y1="350" x2="58.57" y2="350"/>
				<line class="st9" x1="50" y1="358.57" x2="50" y2="341.43"/>
			</g>
			<g>
				<line class="st9" x1="91.43" y1="350" x2="108.57" y2="350"/>
				<line class="st9" x1="100" y1="358.57" x2="100" y2="341.43"/>
			</g>
			<g>
				<line class="st9" x1="141.43" y1="350" x2="158.57" y2="350"/>
				<line class="st9" x1="150" y1="358.57" x2="150" y2="341.43"/>
			</g>
			<g>
				<line class="st9" x1="191.43" y1="350" x2="208.57" y2="350"/>
				<line class="st9" x1="200" y1="358.57" x2="200" y2="341.43"/>
			</g>
			<g>
				<line class="st9" x1="241.43" y1="350" x2="258.57" y2="350"/>
				<line class="st9" x1="250" y1="358.57" x2="250" y2="341.43"/>
			</g>
			<g>
				<line class="st9" x1="291.43" y1="350" x2="308.57" y2="350"/>
				<line class="st9" x1="300" y1="358.57" x2="300" y2="341.43"/>
			</g>
			<g>
				<line class="st9" x1="341.43" y1="350" x2="358.57" y2="350"/>
				<line class="st9" x1="350" y1="358.57" x2="350" y2="341.43"/>
			</g>
			<g>
				<line class="st9" x1="391.43" y1="350" x2="408.57" y2="350"/>
				<line class="st9" x1="400" y1="358.57" x2="400" y2="341.43"/>
			</g>
			<g>
				<line class="st9" x1="441.43" y1="350" x2="458.57" y2="350"/>
				<line class="st9" x1="450" y1="358.57" x2="450" y2="341.43"/>
			</g>
		</g>
		<g>
			<g>
				<line class="st9" x1="41.43" y1="400" x2="58.57" y2="400"/>
				<line class="st9" x1="50" y1="408.57" x2="50" y2="391.43"/>
			</g>
			<g>
				<line class="st9" x1="91.43" y1="400" x2="108.57" y2="400"/>
				<line class="st9" x1="100" y1="408.57" x2="100" y2="391.43"/>
			</g>
			<g>
				<line class="st9" x1="141.43" y1="400" x2="158.57" y2="400"/>
				<line class="st9" x1="150" y1="408.57" x2="150" y2="391.43"/>
			</g>
			<g>
				<line class="st9" x1="191.43" y1="400" x2="208.57" y2="400"/>
				<line class="st9" x1="200" y1="408.57" x2="200" y2="391.43"/>
			</g>
			<g>
				<line class="st9" x1="241.43" y1="400" x2="258.57" y2="400"/>
				<line class="st9" x1="250" y1="408.57" x2="250" y2="391.43"/>
			</g>
			<g>
				<line class="st9" x1="291.43" y1="400" x2="308.57" y2="400"/>
				<line class="st9" x1="300" y1="408.57" x2="300" y2="391.43"/>
			</g>
			<g>
				<line class="st9" x1="341.43" y1="400" x2="358.57" y2="400"/>
				<line class="st9" x1="350" y1="408.57" x2="350" y2="391.43"/>
			</g>
			<g>
				<line class="st9" x1="391.43" y1="400" x2="408.57" y2="400"/>
				<line class="st9" x1="400" y1="408.57" x2="400" y2="391.43"/>
			</g>
			<g>
				<line class="st9" x1="441.43" y1="400" x2="458.57" y2="400"/>
				<line class="st9" x1="450" y1="408.57" x2="450" y2="391.43"/>
			</g>
		</g>
		<g>
			<g>
				<line class="st9" x1="41.43" y1="450" x2="58.57" y2="450"/>
				<line class="st9" x1="50" y1="458.57" x2="50" y2="441.43"/>
			</g>
			<g>
				<line class="st9" x1="91.43" y1="450" x2="108.57" y2="450"/>
				<line class="st9" x1="100" y1="458.57" x2="100" y2="441.43"/>
			</g>
			<g>
				<line class="st9" x1="141.43" y1="450" x2="158.57" y2="450"/>
				<line class="st9" x1="150" y1="458.57" x2="150" y2="441.43"/>
			</g>
			<g>
				<line class="st9" x1="191.43" y1="450" x2="208.57" y2="450"/>
				<line class="st9" x1="200" y1="458.57" x2="200" y2="441.43"/>
			</g>
			<g>
				<line class="st9" x1="241.43" y1="450" x2="258.57" y2="450"/>
				<line class="st9" x1="250" y1="458.57" x2="250" y2="441.43"/>
			</g>
			<g>
				<line class="st9" x1="291.43" y1="450" x2="308.57" y2="450"/>
				<line class="st9" x1="300" y1="458.57" x2="300" y2="441.43"/>
			</g>
			<g>
				<line class="st9" x1="341.43" y1="450" x2="358.57" y2="450"/>
				<line class="st9" x1="350" y1="458.57" x2="350" y2="441.43"/>
			</g>
			<g>
				<line class="st9" x1="391.43" y1="450" x2="408.57" y2="450"/>
				<line class="st9" x1="400" y1="458.57" x2="400" y2="441.43"/>
			</g>
			<g>
				<line class="st9" x1="441.43" y1="450" x2="458.57" y2="450"/>
				<line class="st9" x1="450" y1="458.57" x2="450" y2="441.43"/>
			</g>
		</g>
	</g>
</g>
<g id="Layer_2">
</g>
</svg>
