<?xml version="1.0" encoding="utf-8"?>
<!-- Generator: Adobe Illustrator 23.0.2, SVG Export Plug-In . SVG Version: 6.00 Build 0)  -->
<svg version="1.1" xmlns="http://www.w3.org/2000/svg" xmlns:xlink="http://www.w3.org/1999/xlink" x="0px" y="0px"
	 viewBox="0 0 310 310" style="enable-background:new 0 0 310 310;" xml:space="preserve">
<style type="text/css">
	.st0{fill:#080C28;}
	.st1{fill:none;stroke:#0EE2B7;stroke-miterlimit:10;}
	.st2{fill:#D1F500;}
	.st3{fill:#72862D;}
	.st4{fill:#0EE2B7;}
	.st5{fill:#335B65;}
	.st6{fill:none;stroke:#0EE2B7;stroke-width:0.1;stroke-miterlimit:10;}
	.st7{fill:none;stroke:#0EE2B7;stroke-width:0.57;stroke-miterlimit:10;}
	.st8{fill:none;stroke:#0EE2B7;stroke-width:0.3;stroke-miterlimit:10;}
	.st9{fill:none;stroke:#0EE2B7;stroke-width:1.71;stroke-miterlimit:10;}
	.st10{fill:#080C28;stroke:#0EE2B7;stroke-width:3;stroke-miterlimit:10;}
	.st11{fill:none;stroke:#080C28;stroke-width:6;stroke-miterlimit:10;}
	.st12{fill:#72862D;stroke:#D1F500;stroke-miterlimit:10;}
	.st13{fill:#335B65;stroke:#0EE2B7;stroke-miterlimit:10;}
</style>
<g id="Layer_1">
	<g>
		<path class="st4" d="M310,85H0V0h310V85z M10,75h290V10H10V75z"/>
	</g>
	<g>
		<path class="st4" d="M85,235H0V75h85V235z M10,225h65V85H10V225z"/>
	</g>
	<g>
		<path class="st4" d="M160,235H75V75h85V235z M85,225h65V85H85V225z"/>
	</g>
	<g>
		<path class="st4" d="M235,235h-85V75h85V235z M160,225h65V85h-65V225z"/>
	</g>
	<g>
		<path class="st4" d="M310,235h-85V75h85V235z M235,225h65V85h-65V225z"/>
	</g>
	<g>
		<path class="st4" d="M310,310H0v-85h310V310z M10,300h290v-65H10V300z"/>
	</g>
	<g>
		<circle class="st4" cx="42.5" cy="42.5" r="9.21"/>
	</g>
	<g>
		<circle class="st4" cx="42.5" cy="267.5" r="9.21"/>
	</g>
	<g>
		<circle class="st4" cx="267.5" cy="42.5" r="9.21"/>
	</g>
	<g>
		<circle class="st4" cx="267.5" cy="267.5" r="9.21"/>
	</g>
</g>
<g id="Layer_2">
</g>
</svg>
