<?xml version="1.0" encoding="utf-8"?>
<!-- Generator: Adobe Illustrator 23.0.2, SVG Export Plug-In . SVG Version: 6.00 Build 0)  -->
<svg version="1.1" xmlns="http://www.w3.org/2000/svg" xmlns:xlink="http://www.w3.org/1999/xlink" x="0px" y="0px"
	 viewBox="0 0 40 40" style="enable-background:new 0 0 40 40;" xml:space="preserve">
<style type="text/css">
	.st0{fill:#080C28;}
	.st1{fill:none;stroke:#0EE2B7;stroke-miterlimit:10;}
	.st2{fill:#D1F500;}
	.st3{fill:#72862D;}
	.st4{fill:#0EE2B7;}
	.st5{fill:#335B65;}
	.st6{fill:none;stroke:#0EE2B7;stroke-width:0.1;stroke-miterlimit:10;}
	.st7{fill:none;stroke:#0EE2B7;stroke-width:0.57;stroke-miterlimit:10;}
	.st8{fill:none;stroke:#0EE2B7;stroke-width:0.3;stroke-miterlimit:10;}
	.st9{fill:none;stroke:#0EE2B7;stroke-width:1.71;stroke-miterlimit:10;}
	.st10{fill:#080C28;stroke:#0EE2B7;stroke-width:3;stroke-miterlimit:10;}
	.st11{fill:none;stroke:#080C28;stroke-width:6;stroke-miterlimit:10;}
	.st12{fill:#72862D;stroke:#D1F500;stroke-miterlimit:10;}
	.st13{fill:#335B65;stroke:#0EE2B7;stroke-miterlimit:10;}
</style>
<g id="Layer_1">
	<g>
		<path class="st4" d="M5.85,8.33V7.92c0-0.37-0.34-0.67-0.77-0.67H1.1c-0.43,0-0.77,0.3-0.77,0.67v0.41C0.15,8.34,0,8.47,0,8.63
			v0.48c0,0.16,0.15,0.29,0.33,0.3v0.3C0.15,9.72,0,9.86,0,10.02v0.48c0,0.16,0.15,0.29,0.33,0.3v0.3C0.15,11.11,0,11.25,0,11.41
			v0.48c0,0.16,0.15,0.29,0.33,0.3v0.3C0.15,12.51,0,12.64,0,12.8v0.48c0,0.16,0.15,0.29,0.33,0.3v0.3C0.15,13.9,0,14.03,0,14.19
			v0.48c0,0.16,0.15,0.29,0.33,0.3v0.3C0.15,15.29,0,15.42,0,15.58v0.48c0,0.16,0.15,0.29,0.33,0.3v0.3C0.15,16.68,0,16.81,0,16.97
			v0.48c0,0.16,0.15,0.29,0.33,0.3v0.3C0.15,18.07,0,18.2,0,18.36v0.48c0,0.16,0.15,0.29,0.33,0.3v0.23c0,0.37,0.34,0.67,0.77,0.67
			h3.98c0.43,0,0.77-0.3,0.77-0.67v-0.23c0.19-0.01,0.33-0.14,0.33-0.3v-0.48c0-0.16-0.15-0.29-0.33-0.3v-0.3
			c0.19-0.01,0.33-0.14,0.33-0.3v-0.48c0-0.16-0.15-0.29-0.33-0.3v-0.3c0.19-0.01,0.33-0.14,0.33-0.3v-0.48
			c0-0.16-0.15-0.29-0.33-0.3v-0.3c0.19-0.01,0.33-0.14,0.33-0.3v-0.48c0-0.16-0.15-0.29-0.33-0.3v-0.3
			c0.19-0.01,0.33-0.14,0.33-0.3V12.8c0-0.16-0.15-0.29-0.33-0.3v-0.3c0.19-0.01,0.33-0.14,0.33-0.3v-0.48
			c0-0.16-0.15-0.29-0.33-0.3v-0.3c0.19-0.01,0.33-0.14,0.33-0.3v-0.48c0-0.16-0.15-0.29-0.33-0.3v-0.3
			c0.19-0.01,0.33-0.14,0.33-0.3V8.63C6.18,8.47,6.03,8.34,5.85,8.33z"/>
		<path class="st4" d="M5.85,26.36v-0.41c0-0.37-0.34-0.67-0.77-0.67H1.1c-0.43,0-0.77,0.3-0.77,0.67v0.41
			C0.15,26.37,0,26.5,0,26.67v0.48c0,0.16,0.15,0.29,0.33,0.3v0.3C0.15,27.76,0,27.89,0,28.06v0.48c0,0.16,0.15,0.29,0.33,0.3v0.3
			C0.15,29.15,0,29.28,0,29.45v0.48c0,0.16,0.15,0.29,0.33,0.3v0.3C0.15,30.54,0,30.67,0,30.84v0.48c0,0.16,0.15,0.29,0.33,0.3v0.3
			C0.15,31.93,0,32.06,0,32.23v0.48c0,0.16,0.15,0.29,0.33,0.3v0.3C0.15,33.32,0,33.45,0,33.62v0.48c0,0.16,0.15,0.29,0.33,0.3v0.3
			C0.15,34.71,0,34.84,0,35.01v0.48c0,0.16,0.15,0.29,0.33,0.3v0.3C0.15,36.1,0,36.23,0,36.4v0.48c0,0.16,0.15,0.29,0.33,0.3v0.23
			c0,0.37,0.34,0.67,0.77,0.67h3.98c0.43,0,0.77-0.3,0.77-0.67v-0.23c0.19-0.01,0.33-0.14,0.33-0.3V36.4c0-0.16-0.15-0.29-0.33-0.3
			v-0.3c0.19-0.01,0.33-0.14,0.33-0.3v-0.48c0-0.16-0.15-0.29-0.33-0.3v-0.3c0.19-0.01,0.33-0.14,0.33-0.3v-0.48
			c0-0.16-0.15-0.29-0.33-0.3v-0.3c0.19-0.01,0.33-0.14,0.33-0.3v-0.48c0-0.16-0.15-0.29-0.33-0.3v-0.3
			c0.19-0.01,0.33-0.14,0.33-0.3v-0.48c0-0.16-0.15-0.29-0.33-0.3v-0.3c0.19-0.01,0.33-0.14,0.33-0.3v-0.48
			c0-0.16-0.15-0.29-0.33-0.3v-0.3c0.19-0.01,0.33-0.14,0.33-0.3v-0.48c0-0.16-0.15-0.29-0.33-0.3v-0.3
			c0.19-0.01,0.33-0.14,0.33-0.3v-0.48C6.18,26.5,6.03,26.37,5.85,26.36z"/>
		<path class="st4" d="M40,9.11V8.63c0-0.16-0.15-0.29-0.33-0.3V7.92c0-0.37-0.34-0.67-0.77-0.67h-3.98c-0.43,0-0.77,0.3-0.77,0.67
			v0.41c-0.19,0.01-0.33,0.14-0.33,0.3v0.48c0,0.16,0.15,0.29,0.33,0.3v0.3c-0.19,0.01-0.33,0.14-0.33,0.3v0.48
			c0,0.16,0.15,0.29,0.33,0.3v0.3c-0.19,0.01-0.33,0.14-0.33,0.3v0.48c0,0.16,0.15,0.29,0.33,0.3v0.3c-0.19,0.01-0.33,0.14-0.33,0.3
			v0.48c0,0.16,0.15,0.29,0.33,0.3v0.3c-0.19,0.01-0.33,0.14-0.33,0.3v0.48c0,0.16,0.15,0.29,0.33,0.3v0.3
			c-0.19,0.01-0.33,0.14-0.33,0.3v0.48c0,0.16,0.15,0.29,0.33,0.3v0.3c-0.19,0.01-0.33,0.14-0.33,0.3v0.48
			c0,0.16,0.15,0.29,0.33,0.3v0.3c-0.19,0.01-0.33,0.14-0.33,0.3v0.48c0,0.16,0.15,0.29,0.33,0.3v0.23c0,0.37,0.34,0.67,0.77,0.67
			h3.98c0.43,0,0.77-0.3,0.77-0.67v-0.23c0.19-0.01,0.33-0.14,0.33-0.3v-0.48c0-0.16-0.15-0.29-0.33-0.3v-0.3
			c0.19-0.01,0.33-0.14,0.33-0.3v-0.48c0-0.16-0.15-0.29-0.33-0.3v-0.3c0.19-0.01,0.33-0.14,0.33-0.3v-0.48
			c0-0.16-0.15-0.29-0.33-0.3v-0.3c0.19-0.01,0.33-0.14,0.33-0.3v-0.48c0-0.16-0.15-0.29-0.33-0.3v-0.3
			c0.19-0.01,0.33-0.14,0.33-0.3V12.8c0-0.16-0.15-0.29-0.33-0.3v-0.3c0.19-0.01,0.33-0.14,0.33-0.3v-0.48
			c0-0.16-0.15-0.29-0.33-0.3v-0.3c0.19-0.01,0.33-0.14,0.33-0.3v-0.48c0-0.16-0.15-0.29-0.33-0.3v-0.3C39.85,9.4,40,9.27,40,9.11z"
			/>
		<path class="st4" d="M39.67,26.36v-0.41c0-0.37-0.34-0.67-0.77-0.67h-3.98c-0.43,0-0.77,0.3-0.77,0.67v0.41
			c-0.19,0.01-0.33,0.14-0.33,0.3v0.48c0,0.16,0.15,0.29,0.33,0.3v0.3c-0.19,0.01-0.33,0.14-0.33,0.3v0.48
			c0,0.16,0.15,0.29,0.33,0.3v0.3c-0.19,0.01-0.33,0.14-0.33,0.3v0.48c0,0.16,0.15,0.29,0.33,0.3v0.3c-0.19,0.01-0.33,0.14-0.33,0.3
			v0.48c0,0.16,0.15,0.29,0.33,0.3v0.3c-0.19,0.01-0.33,0.14-0.33,0.3v0.48c0,0.16,0.15,0.29,0.33,0.3v0.3
			c-0.19,0.01-0.33,0.14-0.33,0.3v0.48c0,0.16,0.15,0.29,0.33,0.3v0.3c-0.19,0.01-0.33,0.14-0.33,0.3v0.48
			c0,0.16,0.15,0.29,0.33,0.3v0.3c-0.19,0.01-0.33,0.14-0.33,0.3v0.48c0,0.16,0.15,0.29,0.33,0.3v0.23c0,0.37,0.34,0.67,0.77,0.67
			h3.98c0.43,0,0.77-0.3,0.77-0.67v-0.23c0.19-0.01,0.33-0.14,0.33-0.3V36.4c0-0.16-0.15-0.29-0.33-0.3v-0.3
			c0.19-0.01,0.33-0.14,0.33-0.3v-0.48c0-0.16-0.15-0.29-0.33-0.3v-0.3c0.19-0.01,0.33-0.14,0.33-0.3v-0.48
			c0-0.16-0.15-0.29-0.33-0.3v-0.3C39.85,33,40,32.87,40,32.71v-0.48c0-0.16-0.15-0.29-0.33-0.3v-0.3c0.19-0.01,0.33-0.14,0.33-0.3
			v-0.48c0-0.16-0.15-0.29-0.33-0.3v-0.3c0.19-0.01,0.33-0.14,0.33-0.3v-0.48c0-0.16-0.15-0.29-0.33-0.3v-0.3
			c0.19-0.01,0.33-0.14,0.33-0.3v-0.48c0-0.16-0.15-0.29-0.33-0.3v-0.3c0.19-0.01,0.33-0.14,0.33-0.3v-0.48
			C40,26.5,39.85,26.37,39.67,26.36z"/>
		<path class="st4" d="M30.52,5.33H9.43c-1.44,0-2.6,1.01-2.6,2.26v30.16c0,1.25,1.16,2.26,2.6,2.26h21.09c1.44,0,2.6-1.01,2.6-2.26
			V7.58C33.12,6.34,31.95,5.33,30.52,5.33z M19.47,28.12v0.45v3.93v0.45v4.51c0,0.34-0.32,0.62-0.71,0.62H9.75
			c-0.39,0-0.71-0.28-0.71-0.62v-4.51V32.5v-3.93v-0.45V23.7c0-0.34,0.32-0.62,0.71-0.62h9.01c0.39,0,0.71,0.28,0.71,0.62
			L19.47,28.12L19.47,28.12z M19.47,12.28v0.45v3.93v0.45v4.51c0,0.34-0.32,0.62-0.71,0.62H9.75c-0.39,0-0.71-0.28-0.71-0.62v-4.51
			v-0.45v-3.93v-0.45V7.86c0-0.34,0.32-0.62,0.71-0.62h9.01c0.39,0,0.71,0.28,0.71,0.62L19.47,12.28L19.47,12.28z M30.91,28.12v0.45
			v3.93v0.45v4.51c0,0.34-0.32,0.62-0.71,0.62h-9.01c-0.39,0-0.71-0.28-0.71-0.62v-4.51V32.5v-3.93v-0.45V23.7
			c0-0.34,0.32-0.62,0.71-0.62h9.01c0.39,0,0.71,0.28,0.71,0.62V28.12z M30.91,12.28v0.45v3.93v0.45v4.51
			c0,0.34-0.32,0.62-0.71,0.62h-9.01c-0.39,0-0.71-0.28-0.71-0.62v-4.51v-0.45v-3.93v-0.45V7.86c0-0.34,0.32-0.62,0.71-0.62h9.01
			c0.39,0,0.71,0.28,0.71,0.62V12.28z"/>
		<path class="st4" d="M18.76,7.47H9.75C9.5,7.47,9.3,7.65,9.3,7.86v4.42h9.92V7.86C19.22,7.65,19.01,7.47,18.76,7.47z"/>
		<path class="st4" d="M9.3,21.62c0,0.22,0.2,0.39,0.45,0.39h9.01c0.25,0,0.45-0.18,0.45-0.39v-4.51H9.3L9.3,21.62L9.3,21.62z"/>
		<rect x="9.3" y="12.73" class="st4" width="9.92" height="3.93"/>
		<path class="st4" d="M20.73,21.62c0,0.22,0.2,0.39,0.45,0.39h9.01c0.25,0,0.45-0.18,0.45-0.39v-4.51h-9.92L20.73,21.62
			L20.73,21.62z"/>
		<path class="st4" d="M30.2,7.47h-9.01c-0.25,0-0.45,0.18-0.45,0.39v4.42h9.92V7.86C30.65,7.65,30.45,7.47,30.2,7.47z"/>
		<rect x="20.73" y="12.73" class="st4" width="9.92" height="3.93"/>
		<path class="st4" d="M9.3,37.46c0,0.22,0.2,0.39,0.45,0.39h9.01c0.25,0,0.45-0.18,0.45-0.39v-4.51H9.3L9.3,37.46L9.3,37.46z"/>
		<rect x="9.3" y="28.57" class="st4" width="9.92" height="3.93"/>
		<path class="st4" d="M18.76,23.31H9.75c-0.25,0-0.45,0.18-0.45,0.39v4.42h9.92V23.7C19.22,23.49,19.01,23.31,18.76,23.31z"/>
		<path class="st4" d="M20.73,37.46c0,0.22,0.2,0.39,0.45,0.39h9.01c0.25,0,0.45-0.18,0.45-0.39v-4.51h-9.92L20.73,37.46
			L20.73,37.46z"/>
		<path class="st4" d="M30.2,23.31h-9.01c-0.25,0-0.45,0.18-0.45,0.39v4.42h9.92V23.7C30.65,23.49,30.45,23.31,30.2,23.31z"/>
		<rect x="20.73" y="28.57" class="st4" width="9.92" height="3.93"/>
		<path class="st4" d="M16.34,3.85h7.27c0.36,0,0.54-0.38,0.28-0.6L20.26,0.1c-0.16-0.14-0.41-0.14-0.57,0l-3.63,3.15
			C15.8,3.47,15.98,3.85,16.34,3.85z"/>
	</g>
</g>
<g id="Layer_2">
</g>
</svg>
