<?xml version="1.0" encoding="utf-8"?>
<!-- Generator: Adobe Illustrator 23.0.2, SVG Export Plug-In . SVG Version: 6.00 Build 0)  -->
<svg version="1.1" id="Layer_1" xmlns="http://www.w3.org/2000/svg" xmlns:xlink="http://www.w3.org/1999/xlink" x="0px" y="0px"
	 viewBox="0 0 233.49 269.27" style="enable-background:new 0 0 233.49 269.27;" xml:space="preserve">
<g>
	<path d="M34.15,56.04V53.3c0-2.49-2.01-4.5-4.5-4.5H6.44c-2.49,0-4.5,2.01-4.5,4.5v2.74C0.86,56.11,0,56.99,0,58.09v3.23
		c0,1.1,0.86,1.98,1.94,2.05v2.03C0.86,65.46,0,66.35,0,67.45v3.23c0,1.1,0.86,1.98,1.94,2.05v2.03C0.86,74.82,0,75.71,0,76.8v3.23
		c0,1.1,0.86,1.98,1.94,2.05v2.03C0.86,84.18,0,85.07,0,86.16v3.23c0,1.1,0.86,1.98,1.94,2.05v2.03C0.86,93.54,0,94.43,0,95.52v3.23
		c0,1.1,0.86,1.98,1.94,2.05v2.03C0.86,102.9,0,103.78,0,104.88v3.23c0,1.1,0.86,1.98,1.94,2.05v2.03C0.86,112.25,0,113.14,0,114.24
		v3.23c0,1.1,0.86,1.98,1.94,2.05v2.03C0.86,121.61,0,122.5,0,123.59v3.23c0,1.1,0.86,1.98,1.94,2.05v1.53c0,2.49,2.01,4.5,4.5,4.5
		h23.21c2.49,0,4.5-2.01,4.5-4.5v-1.53c1.08-0.07,1.94-0.95,1.94-2.05v-3.23c0-1.1-0.86-1.98-1.94-2.05v-2.03
		c1.08-0.07,1.94-0.95,1.94-2.05v-3.23c0-1.1-0.86-1.98-1.94-2.05v-2.03c1.08-0.07,1.94-0.95,1.94-2.05v-3.23
		c0-1.1-0.86-1.98-1.94-2.05v-2.03c1.08-0.07,1.94-0.95,1.94-2.05v-3.23c0-1.1-0.86-1.98-1.94-2.05v-2.03
		c1.08-0.07,1.94-0.95,1.94-2.05v-3.23c0-1.1-0.86-1.98-1.94-2.05v-2.03c1.08-0.07,1.94-0.95,1.94-2.05V76.8
		c0-1.1-0.86-1.98-1.94-2.05v-2.03c1.08-0.07,1.94-0.95,1.94-2.05v-3.23c0-1.1-0.86-1.98-1.94-2.05v-2.03
		c1.08-0.07,1.94-0.95,1.94-2.05v-3.23C36.08,56.99,35.22,56.11,34.15,56.04z"/>
	<path d="M34.15,177.45v-2.74c0-2.49-2.01-4.5-4.5-4.5H6.44c-2.49,0-4.5,2.01-4.5,4.5v2.74C0.86,177.52,0,178.4,0,179.5v3.23
		c0,1.1,0.86,1.98,1.94,2.05v2.03C0.86,186.88,0,187.76,0,188.86v3.23c0,1.1,0.86,1.98,1.94,2.05v2.03
		C0.86,196.23,0,197.12,0,198.22v3.23c0,1.1,0.86,1.98,1.94,2.05v2.03C0.86,205.59,0,206.48,0,207.57v3.23
		c0,1.1,0.86,1.98,1.94,2.05v2.03C0.86,214.95,0,215.84,0,216.93v3.23c0,1.1,0.86,1.98,1.94,2.05v2.03
		C0.86,224.31,0,225.19,0,226.29v3.23c0,1.1,0.86,1.98,1.94,2.05v2.03C0.86,233.67,0,234.55,0,235.65v3.23
		c0,1.1,0.86,1.98,1.94,2.05v2.03C0.86,243.02,0,243.91,0,245.01v3.23c0,1.1,0.86,1.98,1.94,2.05v1.53c0,2.49,2.01,4.5,4.5,4.5
		h23.21c2.49,0,4.5-2.01,4.5-4.5v-1.53c1.08-0.07,1.94-0.95,1.94-2.05v-3.23c0-1.1-0.86-1.98-1.94-2.05v-2.03
		c1.08-0.07,1.94-0.95,1.94-2.05v-3.23c0-1.1-0.86-1.98-1.94-2.05v-2.03c1.08-0.07,1.94-0.95,1.94-2.05v-3.23
		c0-1.1-0.86-1.98-1.94-2.05v-2.03c1.08-0.07,1.94-0.95,1.94-2.05v-3.23c0-1.1-0.86-1.98-1.94-2.05v-2.03
		c1.08-0.07,1.94-0.95,1.94-2.05v-3.23c0-1.1-0.86-1.98-1.94-2.05v-2.03c1.08-0.07,1.94-0.95,1.94-2.05v-3.23
		c0-1.1-0.86-1.98-1.94-2.05v-2.03c1.08-0.07,1.94-0.95,1.94-2.05v-3.23c0-1.1-0.86-1.98-1.94-2.05v-2.03
		c1.08-0.07,1.94-0.95,1.94-2.05v-3.23C36.08,178.4,35.22,177.52,34.15,177.45z"/>
	<path d="M233.49,61.32v-3.23c0-1.1-0.86-1.98-1.94-2.05V53.3c0-2.49-2.01-4.5-4.5-4.5h-23.21c-2.49,0-4.5,2.01-4.5,4.5v2.74
		c-1.08,0.07-1.94,0.95-1.94,2.05v3.23c0,1.1,0.86,1.98,1.94,2.05v2.03c-1.08,0.07-1.94,0.95-1.94,2.05v3.23
		c0,1.1,0.86,1.98,1.94,2.05v2.03c-1.08,0.07-1.94,0.95-1.94,2.05v3.23c0,1.1,0.86,1.98,1.94,2.05v2.03
		c-1.08,0.07-1.94,0.95-1.94,2.05v3.23c0,1.1,0.86,1.98,1.94,2.05v2.03c-1.08,0.07-1.94,0.95-1.94,2.05v3.23
		c0,1.1,0.86,1.98,1.94,2.05v2.03c-1.08,0.07-1.94,0.95-1.94,2.05v3.23c0,1.1,0.86,1.98,1.94,2.05v2.03
		c-1.08,0.07-1.94,0.95-1.94,2.05v3.23c0,1.1,0.86,1.98,1.94,2.05v2.03c-1.08,0.07-1.94,0.95-1.94,2.05v3.23
		c0,1.1,0.86,1.98,1.94,2.05v1.53c0,2.49,2.01,4.5,4.5,4.5h23.21c2.49,0,4.5-2.01,4.5-4.5v-1.53c1.08-0.07,1.94-0.95,1.94-2.05
		v-3.23c0-1.1-0.86-1.98-1.94-2.05v-2.03c1.08-0.07,1.94-0.95,1.94-2.05v-3.23c0-1.1-0.86-1.98-1.94-2.05v-2.03
		c1.08-0.07,1.94-0.95,1.94-2.05v-3.23c0-1.1-0.86-1.98-1.94-2.05v-2.03c1.08-0.07,1.94-0.95,1.94-2.05v-3.23
		c0-1.1-0.86-1.98-1.94-2.05v-2.03c1.08-0.07,1.94-0.95,1.94-2.05v-3.23c0-1.1-0.86-1.98-1.94-2.05v-2.03
		c1.08-0.07,1.94-0.95,1.94-2.05V76.8c0-1.1-0.86-1.98-1.94-2.05v-2.03c1.08-0.07,1.94-0.95,1.94-2.05v-3.23
		c0-1.1-0.86-1.98-1.94-2.05v-2.03C232.64,63.3,233.49,62.42,233.49,61.32z"/>
	<path d="M231.56,177.45v-2.74c0-2.49-2.01-4.5-4.5-4.5h-23.21c-2.49,0-4.5,2.01-4.5,4.5v2.74c-1.08,0.07-1.94,0.95-1.94,2.05v3.23
		c0,1.1,0.86,1.98,1.94,2.05v2.03c-1.08,0.07-1.94,0.95-1.94,2.05v3.23c0,1.1,0.86,1.98,1.94,2.05v2.03
		c-1.08,0.07-1.94,0.95-1.94,2.05v3.23c0,1.1,0.86,1.98,1.94,2.05v2.03c-1.08,0.07-1.94,0.95-1.94,2.05v3.23
		c0,1.1,0.86,1.98,1.94,2.05v2.03c-1.08,0.07-1.94,0.95-1.94,2.05v3.23c0,1.1,0.86,1.98,1.94,2.05v2.03
		c-1.08,0.07-1.94,0.95-1.94,2.05v3.23c0,1.1,0.86,1.98,1.94,2.05v2.03c-1.08,0.07-1.94,0.95-1.94,2.05v3.23
		c0,1.1,0.86,1.98,1.94,2.05v2.03c-1.08,0.07-1.94,0.95-1.94,2.05v3.23c0,1.1,0.86,1.98,1.94,2.05v1.53c0,2.49,2.01,4.5,4.5,4.5
		h23.21c2.49,0,4.5-2.01,4.5-4.5v-1.53c1.08-0.07,1.94-0.95,1.94-2.05v-3.23c0-1.1-0.86-1.98-1.94-2.05v-2.03
		c1.08-0.07,1.94-0.95,1.94-2.05v-3.23c0-1.1-0.86-1.98-1.94-2.05v-2.03c1.08-0.07,1.94-0.95,1.94-2.05v-3.23
		c0-1.1-0.86-1.98-1.94-2.05v-2.03c1.08-0.07,1.94-0.95,1.94-2.05v-3.23c0-1.1-0.86-1.98-1.94-2.05v-2.03
		c1.08-0.07,1.94-0.95,1.94-2.05v-3.23c0-1.1-0.86-1.98-1.94-2.05v-2.03c1.08-0.07,1.94-0.95,1.94-2.05v-3.23
		c0-1.1-0.86-1.98-1.94-2.05v-2.03c1.08-0.07,1.94-0.95,1.94-2.05v-3.23c0-1.1-0.86-1.98-1.94-2.05v-2.03
		c1.08-0.07,1.94-0.95,1.94-2.05v-3.23C233.49,178.4,232.64,177.52,231.56,177.45z"/>
	<path d="M178.14,35.85H55.05c-8.39,0-15.19,6.8-15.19,15.19v203.03c0,8.39,6.8,15.19,15.19,15.19h123.09
		c8.39,0,15.19-6.8,15.19-15.19V51.04C193.33,42.65,186.53,35.85,178.14,35.85z M113.67,189.31v3v26.48v3v30.39
		c0,2.29-1.86,4.14-4.14,4.14H56.91c-2.29,0-4.14-1.86-4.14-4.14v-30.39v-3v-26.48v-3v-29.75c0-2.29,1.86-4.14,4.14-4.14h52.61
		c2.29,0,4.14,1.86,4.14,4.14V189.31z M113.67,82.69v3v26.48v3v30.39c0,2.29-1.86,4.14-4.14,4.14H56.91c-2.29,0-4.14-1.86-4.14-4.14
		v-30.39v-3V85.69v-3V52.94c0-2.29,1.86-4.14,4.14-4.14h52.61c2.29,0,4.14,1.86,4.14,4.14V82.69z M180.42,189.31v3v26.48v3v30.39
		c0,2.29-1.86,4.14-4.14,4.14h-52.61c-2.29,0-4.14-1.86-4.14-4.14v-30.39v-3v-26.48v-3v-29.75c0-2.29,1.86-4.14,4.14-4.14h52.61
		c2.29,0,4.14,1.86,4.14,4.14V189.31z M180.42,82.69v3v26.48v3v30.39c0,2.29-1.86,4.14-4.14,4.14h-52.61
		c-2.29,0-4.14-1.86-4.14-4.14v-30.39v-3V85.69v-3V52.94c0-2.29,1.86-4.14,4.14-4.14h52.61c2.29,0,4.14,1.86,4.14,4.14V82.69z"/>
	<path d="M109.53,50.3H56.91c-1.46,0-2.64,1.19-2.64,2.64v29.75h57.9V52.94C112.17,51.48,110.98,50.3,109.53,50.3z"/>
	<path d="M54.27,145.56c0,1.46,1.19,2.64,2.64,2.64h52.61c1.46,0,2.64-1.19,2.64-2.64v-30.39h-57.9V145.56z"/>
	<rect x="54.27" y="85.69" width="57.9" height="26.48"/>
	<path d="M121.02,145.56c0,1.46,1.19,2.64,2.64,2.64h52.61c1.46,0,2.64-1.19,2.64-2.64v-30.39h-57.9V145.56z"/>
	<path d="M176.27,50.3h-52.61c-1.46,0-2.64,1.19-2.64,2.64v29.75h57.9V52.94C178.92,51.48,177.73,50.3,176.27,50.3z"/>
	<rect x="121.02" y="85.69" width="57.9" height="26.48"/>
	<path d="M54.27,252.18c0,1.46,1.19,2.64,2.64,2.64h52.61c1.46,0,2.64-1.19,2.64-2.64v-30.39h-57.9V252.18z"/>
	<rect x="54.27" y="192.31" width="57.9" height="26.48"/>
	<path d="M109.53,156.91H56.91c-1.46,0-2.64,1.19-2.64,2.64v29.75h57.9v-29.75C112.17,158.1,110.98,156.91,109.53,156.91z"/>
	<path d="M121.02,252.18c0,1.46,1.19,2.64,2.64,2.64h52.61c1.46,0,2.64-1.19,2.64-2.64v-30.39h-57.9V252.18z"/>
	<path d="M176.27,156.91h-52.61c-1.46,0-2.64,1.19-2.64,2.64v29.75h57.9v-29.75C178.92,158.1,177.73,156.91,176.27,156.91z"/>
	<rect x="121.02" y="192.31" width="57.9" height="26.48"/>
	<path d="M95.38,25.92h42.42c2.1,0,3.15-2.54,1.66-4.02L118.26,0.69c-0.92-0.92-2.41-0.92-3.33,0L93.72,21.9
		C92.24,23.38,93.29,25.92,95.38,25.92z"/>
</g>
</svg>
